<svg id="Capa_1" data-name="Capa 1" xmlns="http://www.w3.org/2000/svg" viewBox="0 0 20.31 27.79"><defs><style>.cls-1{fill:#fff;}.cls-2{fill:#efecea;}</style></defs><title>firebase</title><path class="cls-1" d="M5.9,24.42,6,24.17,14,9.11,10.44,2.45a.6.6,0,0,0-.81-.27.59.59,0,0,0-.32.47Z" transform="translate(-5.8 -2.12)"/><path class="cls-1" d="M16.54,13.9l2.56-2.62L16.54,6.4a.6.6,0,0,0-1.08-.05L14.05,9.08l0,.14Z" transform="translate(-5.8 -2.12)"/><polygon class="cls-2" points="0 22.48 0.08 22.41 0.36 22.29 10.62 12.07 10.75 11.72 8.19 6.84 0 22.48"/><path class="cls-1" d="M26.11,24.53,23.48,8.33a.56.56,0,0,0-.58-.54.57.57,0,0,0-.38.18L5.9,24.57,15,29.67a1.92,1.92,0,0,0,1.86,0Z" transform="translate(-5.8 -2.12)"/></svg>